<!--?xml version="1.0" encoding="UTF-8"?-->
<svg xmlns="http://www.w3.org/2000/svg" width="24" height="24" viewBox="0 0 24 24" aria-hidden="true">
  <path d="M22.56 12.25c0-.78-.07-1.53-.2-2.25H12v4.26h5.92a5.07 5.07 0 0 1-2.2 3.32v2.75h3.56c2.08-1.92 3.28-4.74 3.28-8.08z" fill="#4285F4"></path>
  <path d="M12 23c2.97 0 5.46-.98 7.28-2.67l-3.56-2.75c-.98.66-2.23 1.06-3.72 1.06-2.86 0-5.29-1.93-6.16-4.53H2.18v2.84A11 11 0 0 0 12 23z" fill="#34A853"></path>
  <path d="M5.84 14.11A6.65 6.65 0 0 1 5.5 12c0-.73.13-1.43.34-2.11V7.05H2.18A11 11 0 0 0 1 12c0 1.77.43 3.45 1.18 4.95l3.66-2.84z" fill="#FBBC05"></path>
  <path d="M12 5.36c1.62 0 3.06.56 4.2 1.64l3.15-3.15C17.45 1.98 14.97 1 12 1A11 11 0 0 0 2.18 7.05l3.66 2.84C6.71 7.29 9.14 5.36 12 5.36z" fill="#EA4335"></path>
</svg>
